<svg xmlns="http://www.w3.org/2000/svg">
    <defs>
        <symbol id="icon-bucket" viewBox="0 0 24 24">
            <g>
                <path class="cls-637b8d40f95e86b59c57a2f4-1"
                      d="M21.57,14.89h0a2.32,2.32,0,0,1-.68,1.64l-5.36,5.36a2.32,2.32,0,0,1-1.64.68h0a2.32,2.32,0,0,1-1.63-.68L2.87,12.5,11.5,3.87l9.39,9.39A2.32,2.32,0,0,1,21.57,14.89Z"></path>
                <line class="cls-637b8d40f95e86b59c57a2f4-1" x1="11.02" y1="9.14" x2="18.69" y2="1.47"></line>
                <line class="cls-637b8d40f95e86b59c57a2f4-1" x1="12.94" y1="2.43" x2="1.43" y2="13.94"></line>
            </g>
        </symbol>

        <symbol id="icon-calendar" viewBox="0 0 24 24">
            <rect class="cls-6374f8d9b67f094e4896c61a-1" x="1.48" y="3.37" width="21.04" height="4.78"></rect>
            <rect class="cls-6374f8d9b67f094e4896c61a-1" x="1.48" y="8.15" width="21.04" height="14.35"></rect>
            <line class="cls-6374f8d9b67f094e4896c61a-1" x1="5.3" y1="12.93" x2="7.22" y2="12.93"></line>
            <line class="cls-6374f8d9b67f094e4896c61a-1" x1="9.13" y1="12.93" x2="11.04" y2="12.93"></line>
            <line class="cls-6374f8d9b67f094e4896c61a-1" x1="12.96" y1="12.93" x2="14.87" y2="12.93"></line>
            <line class="cls-6374f8d9b67f094e4896c61a-1" x1="16.78" y1="12.93" x2="18.7" y2="12.93"></line>
            <line class="cls-6374f8d9b67f094e4896c61a-1" x1="16.78" y1="17.72" x2="18.7" y2="17.72"></line>
            <line class="cls-6374f8d9b67f094e4896c61a-1" x1="5.3" y1="17.72" x2="7.22" y2="17.72"></line>
            <line class="cls-6374f8d9b67f094e4896c61a-1" x1="9.13" y1="17.72" x2="11.04" y2="17.72"></line>
            <line class="cls-6374f8d9b67f094e4896c61a-1" x1="12.96" y1="17.72" x2="14.87" y2="17.72"></line>
            <line class="cls-6374f8d9b67f094e4896c61a-1" x1="6.26" y1="0.5" x2="6.26" y2="5.28"></line>
            <line class="cls-6374f8d9b67f094e4896c61a-1" x1="12" y1="0.5" x2="12" y2="5.28"></line>
            <line class="cls-6374f8d9b67f094e4896c61a-1" x1="17.74" y1="0.5" x2="17.74" y2="5.28"></line>
        </symbol>

        <symbol id="icon-landscape" viewBox="0 0 24 24">
            <line class="cls-637b88e7f95e86b59c57a1fe-1" x1="1.09" y1="22" x2="22.91" y2="22"></line>
            <path class="cls-637b88e7f95e86b59c57a1fe-1"
                  d="M1.55,12.45,4.08,9.92a2.19,2.19,0,0,1,1.56-.65h0a2.16,2.16,0,0,1,1.55.65L19.27,22"></path>
            <path class="cls-637b88e7f95e86b59c57a1fe-1"
                  d="M12,14.73l2.08-2.09A2.22,2.22,0,0,1,15.64,12h0a2.2,2.2,0,0,1,1.55.64l5.72,5.72"></path>
            <circle class="cls-637b88e7f95e86b59c57a1fe-1" cx="12.45" cy="4.27" r="2.27"></circle>
        </symbol>
    </defs>
</svg>